<svg width="48" height="48" viewBox="0 0 48 48" fill="none" xmlns="http://www.w3.org/2000/svg">
<rect x="1.5" y="1.5" width="45" height="45" rx="22.5" stroke="#fff" stroke-width="3"/>
<path d="M21.6534 32.8652C21.6532 32.717 21.5874 32.5764 21.4737 32.4814C21.3591 32.3877 21.2095 32.3482 21.0635 32.373C19.4727 32.6679 17.4551 32.6718 16.8692 31.0263C16.5088 30.1468 15.9312 29.373 15.1905 28.7773C15.0372 28.6987 14.899 28.5936 14.7823 28.4668C14.7429 28.2259 14.5352 28.0488 14.2911 28.0478H14.2891C14.0137 28.0478 13.7902 28.2705 13.7891 28.5459C13.7861 29.1162 14.5 29.5429 14.7109 29.6552C15.241 30.1313 15.6583 30.7195 15.9327 31.377C16.2813 32.3565 17.3438 33.8721 20.6553 33.4492C20.6583 33.8135 20.6632 34.002 20.6671 34.1455L20.6719 34.4405C20.6719 34.7166 20.8958 34.9405 21.1719 34.9405C21.4481 34.9405 21.6719 34.7166 21.6719 34.4405L21.6671 34.1181C21.6612 33.917 21.6534 33.627 21.6534 32.8652ZM32.921 17.2236C32.8907 17.1855 32.8585 17.1455 32.8253 17.1054C32.8924 16.8941 32.9452 16.6784 32.9835 16.46C33.1383 15.3868 33.001 14.2917 32.586 13.2899C32.5313 13.1523 32.4182 13.046 32.2774 13C32.1358 12.9531 30.8438 12.6054 28.1475 14.3818C25.8886 13.8076 23.5218 13.8076 21.2628 14.3818C18.5675 12.6259 17.2833 12.955 17.1407 12.997C16.9972 13.0423 16.8815 13.1494 16.8253 13.289C16.4027 14.3059 16.2663 15.419 16.4307 16.5078C16.469 16.7074 16.5176 16.9049 16.5762 17.0996C16.5411 17.1426 16.5079 17.1855 16.4766 17.2275C15.6301 18.3015 15.1796 19.6346 15.2012 21.002C15.1988 21.3121 15.2131 21.6221 15.2442 21.9307C15.5841 26.5948 18.5928 27.8926 21.1915 28.336C21.0223 28.6394 20.8958 28.9647 20.8155 29.3028C20.7497 29.5708 20.9136 29.8415 21.1817 29.9073C21.4498 29.973 21.7204 29.8091 21.7862 29.541C21.8787 29.0814 22.111 28.6615 22.4512 28.3389C22.6592 28.1569 22.6804 27.8407 22.4984 27.6326C22.4164 27.5389 22.3024 27.4791 22.1787 27.4649C19.4219 27.1524 16.5606 26.2412 16.2402 21.8399C16.212 21.5615 16.199 21.2818 16.2012 21.002C16.1824 19.8542 16.5604 18.7351 17.2716 17.834C17.3467 17.7324 17.4307 17.6396 17.5137 17.5478C17.6405 17.4079 17.6779 17.2086 17.6104 17.0322C17.5251 16.8067 17.46 16.574 17.4161 16.3369C17.2963 15.533 17.3762 14.712 17.6485 13.9463C18.8361 14.1116 19.9576 14.5921 20.8965 15.3379C21.0177 15.4196 21.1688 15.4439 21.3096 15.4043C23.534 14.8007 25.8791 14.8007 28.1035 15.4043C28.2451 15.4438 28.3968 15.4192 28.5185 15.3369C29.4508 14.5835 30.5719 14.1001 31.7598 13.9394C32.0289 14.6936 32.1104 15.5021 31.9971 16.2949C31.9529 16.5468 31.8839 16.7939 31.791 17.0322C31.7235 17.2086 31.7609 17.4079 31.8877 17.5478C31.9756 17.6445 32.0635 17.7529 32.1406 17.8496C32.8534 18.7438 33.2319 19.8586 33.211 21.002C33.2133 21.288 33.1993 21.5739 33.169 21.8584C32.8516 26.2393 29.9796 27.1504 27.212 27.4649C26.9374 27.4964 26.7403 27.7446 26.7719 28.0193C26.7861 28.1429 26.8458 28.2569 26.9395 28.3388C27.2842 28.6638 27.5151 29.0912 27.5978 29.5576C27.683 29.8869 27.7227 30.2263 27.7159 30.5664V33.0254C27.7052 33.7012 27.7052 34.208 27.7052 34.4404C27.7056 34.7165 27.9298 34.9401 28.2059 34.9397C28.4815 34.9393 28.7048 34.716 28.7052 34.4404C28.7052 34.2099 28.7052 33.709 28.7159 33.0332V30.5664C28.7238 30.1429 28.6735 29.7204 28.5665 29.3105C28.4913 28.9698 28.3677 28.6416 28.1993 28.3359C30.8077 27.8935 33.8282 26.5966 34.1652 21.9511C34.1983 21.6358 34.2136 21.3189 34.2111 21.0019C34.2338 19.6307 33.7776 18.2945 32.921 17.2236Z" fill="white" stroke="white"/>
</svg>
