<svg width="48" height="48" viewBox="0 0 48 48" fill="none" xmlns="http://www.w3.org/2000/svg">
<rect x="1.5" y="1.5" width="45" height="45" rx="22.5" stroke="#666666" stroke-width="3"/>
<path d="M17.8199 25.4101C17.7761 26.226 18.0562 27.0262 18.5993 27.6367C19.1423 28.2472 19.9045 28.6186 20.7199 28.6701C21.5336 28.6161 22.2932 28.2436 22.8341 27.6334C23.3751 27.0232 23.6538 26.2244 23.6099 25.4101C23.6539 24.5948 23.3755 23.7949 22.8348 23.1831C22.2941 22.5713 21.5344 22.1967 20.7199 22.1401C19.9036 22.1942 19.1415 22.5677 18.5986 23.1798C18.0558 23.7919 17.776 24.5932 17.8199 25.4101V25.4101ZM21.6099 25.4101C21.6099 26.0901 21.1999 26.6701 20.7199 26.6701C20.2399 26.6701 19.8199 26.0901 19.8199 25.4101C19.8199 24.7301 20.2299 24.1401 20.7199 24.1401C21.2099 24.1401 21.6099 24.7201 21.6099 25.4101ZM27.2799 22.1401C26.4654 22.1967 25.7058 22.5713 25.1651 23.1831C24.6244 23.7949 24.3459 24.5948 24.3899 25.4101C24.346 26.2244 24.6248 27.0232 25.1657 27.6334C25.7066 28.2436 26.4662 28.6161 27.2799 28.6701C28.0954 28.6186 28.8575 28.2472 29.4006 27.6367C29.9436 27.0262 30.2237 26.226 30.1799 25.4101C30.2238 24.5932 29.944 23.7919 29.4012 23.1798C28.8584 22.5677 28.0962 22.1942 27.2799 22.1401V22.1401ZM27.2799 26.6701C26.7999 26.6701 26.3899 26.0901 26.3899 25.4101C26.3899 24.7301 26.7999 24.1401 27.2799 24.1401C27.7599 24.1401 28.1799 24.7201 28.1799 25.4101C28.1799 26.1001 27.7699 26.6701 27.2799 26.6701Z" fill="white"/>
<path d="M34.6299 18.5302L34.5599 18.4402C34.5599 18.4402 34.5599 18.3702 34.5599 18.3402C32.824 16.232 30.4285 14.77 27.7599 14.1902C27.6306 14.1528 27.4951 14.1419 27.3615 14.1582C27.2279 14.1745 27.099 14.2175 26.9824 14.2848C26.8659 14.3521 26.7641 14.4422 26.6832 14.5497C26.6023 14.6573 26.5439 14.7801 26.5116 14.9107C26.4793 15.0413 26.4736 15.1772 26.4951 15.31C26.5165 15.4429 26.5645 15.5701 26.6362 15.6839C26.708 15.7978 26.802 15.896 26.9126 15.9727C27.0232 16.0494 27.1481 16.1029 27.2799 16.1302C29.4867 16.6033 31.474 17.7957 32.9299 19.5202C34.2787 22.6157 34.983 25.9536 34.9999 29.3302C33.6072 30.6292 31.8725 31.5034 29.9999 31.8502V31.4202C29.9999 31.4202 29.9999 31.3702 29.9999 31.3402C31.2327 30.8619 32.3884 30.2049 33.4299 29.3902C33.6381 29.2244 33.7719 28.9827 33.8019 28.7183C33.8319 28.4539 33.7557 28.1884 33.5899 27.9802C33.4241 27.772 33.1825 27.6382 32.918 27.6082C32.6536 27.5782 32.3881 27.6544 32.1799 27.8202C29.8326 29.6003 26.9442 30.5183 23.9999 30.4202C21.0794 30.5022 18.2183 29.585 15.8899 27.8202C15.7868 27.7381 15.6686 27.6771 15.5419 27.6408C15.4153 27.6044 15.2827 27.5933 15.1518 27.6082C14.8873 27.6382 14.6457 27.772 14.4799 27.9802C14.3141 28.1884 14.2379 28.4539 14.2679 28.7183C14.2979 28.9827 14.4317 29.2244 14.6399 29.3902C15.6743 30.2046 16.8234 30.8617 18.0499 31.3402V31.8502C16.1773 31.5034 14.4426 30.6292 13.0499 29.3302C13.0731 25.9522 13.7842 22.6143 15.1399 19.5202C16.5959 17.7957 18.5831 16.6033 20.7899 16.1302C21.0383 16.0584 21.2492 15.8933 21.3784 15.6694C21.5076 15.4455 21.5451 15.1802 21.483 14.9293C21.4209 14.6784 21.2641 14.4612 21.0454 14.3234C20.8267 14.1856 20.5631 14.1379 20.3099 14.1902C17.6413 14.77 15.2458 16.232 13.5099 18.3402C13.5099 18.3402 13.5099 18.4102 13.5099 18.4402L13.4399 18.5302C11.4999 22.5302 11.2799 26.1802 11.0699 29.6702C11.0609 29.8118 11.082 29.9536 11.132 30.0864C11.182 30.2191 11.2597 30.3397 11.3599 30.4402C13.3923 32.5116 16.1066 33.7764 18.9999 34.0002V34.0002C19.2622 33.9991 19.5136 33.8949 19.6999 33.7102C19.7944 33.6176 19.8696 33.5071 19.9211 33.3852C19.9726 33.2634 19.9994 33.1325 19.9999 33.0002V32.0002C22.6311 32.6157 25.3688 32.6157 27.9999 32.0002V33.0002C28.0005 33.1325 28.0273 33.2634 28.0788 33.3852C28.1302 33.5071 28.2054 33.6176 28.2999 33.7102C28.4862 33.8949 28.7376 33.9991 28.9999 34.0002C31.9217 33.8136 34.6745 32.5652 36.7399 30.4902C36.8401 30.3897 36.9178 30.2691 36.9678 30.1364C37.0178 30.0036 37.0389 29.8618 37.0299 29.7202C36.7899 26.1802 36.5699 22.5702 34.6299 18.5302Z" fill="white"/>
<path d="M31.49 19.72C31.5506 19.6032 31.5876 19.4755 31.5988 19.3444C31.61 19.2132 31.5952 19.0811 31.5553 18.9557C31.5153 18.8303 31.451 18.714 31.366 18.6135C31.281 18.513 31.177 18.4302 31.06 18.37C28.8578 17.3204 26.4386 16.8064 24 16.87C21.5613 16.8064 19.1421 17.3204 16.94 18.37C16.8229 18.4302 16.7189 18.513 16.6339 18.6135C16.5489 18.714 16.4846 18.8303 16.4446 18.9557C16.4047 19.0811 16.3899 19.2132 16.4011 19.3444C16.4123 19.4755 16.4493 19.6032 16.51 19.72C16.6333 19.9547 16.8449 20.1307 17.098 20.2095C17.3512 20.2883 17.6252 20.2633 17.86 20.14C19.7792 19.2425 21.8821 18.8075 24 18.87C26.1178 18.8075 28.2207 19.2425 30.14 20.14C30.2814 20.2164 30.4392 20.2576 30.6 20.26C30.7836 20.2604 30.9638 20.2102 31.1208 20.115C31.2778 20.0197 31.4055 19.8831 31.49 19.72Z" fill="white"/>
</svg>
