<svg width="48" height="48" viewBox="0 0 48 48" fill="none" xmlns="http://www.w3.org/2000/svg">
<rect x="1.5" y="1.5" width="45" height="45" rx="22.5" stroke="#666666" stroke-width="3"/>
<path d="M34.3758 29.5625C33.3773 27.9906 32.2087 26.5334 30.8912 25.2172C30.8672 25.1873 30.8541 25.1501 30.8541 25.1117C30.8541 25.0734 30.8672 25.0362 30.8912 25.0063C32.0249 23.4588 33.0268 21.819 33.8865 20.1041C34.0108 19.8587 34.0699 19.5854 34.0581 19.3106C34.0463 19.0357 33.9639 18.7685 33.819 18.5347C33.6868 18.2971 33.4935 18.099 33.2591 17.9611C33.0247 17.8231 32.7578 17.7503 32.4858 17.75H29.9546C29.6334 17.7563 29.3206 17.8541 29.0531 18.0319C28.7856 18.2098 28.5743 18.4603 28.4443 18.7541C27.7091 20.3801 26.828 21.9362 25.8118 23.4031V19.2688C25.8129 19.069 25.7744 18.871 25.6985 18.6863C25.6225 18.5015 25.5107 18.3336 25.3695 18.1924C25.2282 18.0511 25.0603 17.9393 24.8756 17.8634C24.6908 17.7874 24.4928 17.7489 24.293 17.75H20.5974C20.3823 17.7534 20.1721 17.8154 19.9897 17.9295C19.8072 18.0435 19.6594 18.2052 19.5621 18.3971C19.4648 18.5891 19.4218 18.8039 19.4378 19.0185C19.4537 19.2331 19.5279 19.4392 19.6524 19.6147L19.9899 20.0872C20.1709 20.3472 20.2681 20.6563 20.2683 20.9731V24.2131C19.1545 22.5654 18.269 20.7745 17.6358 18.8891C17.5217 18.5569 17.3067 18.2685 17.0208 18.0643C16.7349 17.8602 16.3925 17.7503 16.0412 17.75H13.974C13.7543 17.7526 13.5381 17.8048 13.3414 17.9026C13.1448 18.0004 12.9727 18.1414 12.8381 18.3149C12.7034 18.4885 12.6097 18.6902 12.5639 18.905C12.518 19.1199 12.5213 19.3423 12.5733 19.5556C13.7124 24.3903 16.1002 28.3981 19.1293 30.5244C19.3108 30.6534 19.536 30.7053 19.7557 30.669C19.9754 30.6326 20.1718 30.5109 20.3021 30.3303C20.3673 30.2402 20.414 30.138 20.4395 30.0297C20.465 29.9214 20.4689 29.8091 20.4508 29.6993C20.4328 29.5895 20.3932 29.4844 20.3344 29.39C20.2756 29.2955 20.1986 29.2137 20.108 29.1491C17.4587 27.2928 15.3493 23.7575 14.2777 19.4375H16.0496C16.826 21.7966 17.9956 24.0074 19.509 25.9766C19.6839 26.2001 19.9248 26.3627 20.1974 26.4415C20.4701 26.5203 20.7606 26.5111 21.0277 26.4153C21.3018 26.3198 21.5389 26.1405 21.7055 25.9027C21.8721 25.665 21.9596 25.3809 21.9558 25.0906V20.9731C21.9577 20.4368 21.8242 19.9086 21.5677 19.4375H24.099V24.0191C24.096 24.3469 24.2009 24.6666 24.3976 24.9289C24.5943 25.1912 24.8718 25.3814 25.1874 25.4703C25.4936 25.5722 25.8248 25.5704 26.1298 25.4652C26.4348 25.3599 26.6967 25.1571 26.8749 24.8881C28.0734 23.1784 29.0967 21.3523 29.9293 19.4375H32.2918C31.4876 21.0188 30.5594 22.5338 29.5158 23.9685C29.2527 24.3205 29.125 24.7554 29.156 25.1938C29.1869 25.6322 29.3746 26.0448 29.6846 26.3563C30.9152 27.5964 32.0229 28.9527 32.9921 30.4063H30.1655C29.2936 28.9629 28.1226 27.7229 26.7315 26.7697C26.5228 26.6168 26.2753 26.5254 26.0173 26.5061C25.7593 26.4867 25.501 26.54 25.2718 26.66C25.0361 26.7806 24.8386 26.9645 24.7015 27.191C24.5644 27.4175 24.4931 27.6778 24.4955 27.9425V29.9506C24.5001 30.0679 24.4585 30.1822 24.3796 30.269C24.3007 30.3558 24.1908 30.4082 24.0737 30.4147H23.348C23.1243 30.4147 22.9096 30.5036 22.7514 30.6618C22.5932 30.8201 22.5043 31.0347 22.5043 31.2585C22.5043 31.4822 22.5932 31.6968 22.7514 31.8551C22.9096 32.0133 23.1243 32.1022 23.348 32.1022H24.0737C24.3536 32.1 24.6304 32.0425 24.888 31.9331C25.1457 31.8237 25.3792 31.6645 25.5752 31.4646C25.7712 31.2646 25.9258 31.028 26.0301 30.7682C26.1344 30.5084 26.1864 30.2306 26.183 29.9506V28.4572C27.198 29.2207 28.0573 30.1716 28.7143 31.2585C28.8593 31.5099 29.0668 31.7196 29.3166 31.8674C29.5664 32.0152 29.85 32.0961 30.1402 32.1022H32.9921C33.2837 32.1029 33.5701 32.0249 33.8211 31.8764C34.0721 31.7279 34.2783 31.5144 34.418 31.2585C34.5614 30.9972 34.633 30.7027 34.6256 30.4048C34.6181 30.1069 34.532 29.8163 34.3758 29.5625Z" fill="white"/>
</svg>
