<svg width="48" height="48" viewBox="0 0 48 48" fill="none" xmlns="http://www.w3.org/2000/svg">
<rect x="1.5" y="1.5" width="45" height="45" rx="22.5" stroke="#fff" stroke-width="3"/>
<path d="M33.2647 14.4278C32.98 14.1909 32.6364 14.0357 32.2704 13.9786C31.9045 13.9215 31.5299 13.9647 31.1866 14.1036L13.2657 21.3389C12.8824 21.4966 12.5562 21.7671 12.3303 22.1145C12.1043 22.462 11.9894 22.8699 12.0008 23.2841C12.0121 23.6984 12.1492 24.0994 12.3937 24.434C12.6383 24.7685 12.9789 25.0208 13.3702 25.1573L16.9952 26.418L19.0157 33.0997C19.0431 33.1889 19.083 33.2739 19.134 33.352C19.1418 33.364 19.1527 33.373 19.161 33.3846C19.22 33.467 19.2913 33.5397 19.3724 33.6004C19.3955 33.618 19.4175 33.6345 19.4422 33.6501C19.5371 33.7131 19.6423 33.7591 19.7529 33.7862L19.7648 33.7872L19.7715 33.7901C19.838 33.8036 19.9057 33.8105 19.9736 33.8106C19.9802 33.8106 19.986 33.8074 19.9924 33.8073C20.0949 33.8055 20.1965 33.7879 20.2935 33.755C20.3161 33.7473 20.3355 33.7345 20.3574 33.7252C20.4297 33.6952 20.4983 33.6567 20.5617 33.6106C20.6124 33.5679 20.6631 33.5251 20.7139 33.4824L23.416 30.4991L27.4463 33.6211C27.8011 33.8974 28.2379 34.0475 28.6875 34.0479C29.1587 34.0473 29.6154 33.8847 29.9809 33.5874C30.3465 33.2901 30.5987 32.8762 30.6954 32.4151L33.958 16.3985C34.032 16.038 34.0065 15.6642 33.8844 15.3171C33.7623 14.9699 33.5481 14.6626 33.2647 14.4278V14.4278ZM20.3702 26.7364C20.2315 26.8745 20.1367 27.0505 20.0977 27.2422L19.7882 28.7462L19.0041 26.1532L23.0694 24.0362L20.3702 26.7364ZM28.6719 32.0401L23.9092 28.3506C23.71 28.1966 23.46 28.1234 23.2092 28.1455C22.9583 28.1675 22.725 28.2833 22.5557 28.4697L21.6903 29.4249L21.9961 27.9385L29.0791 20.8555C29.2482 20.6867 29.3512 20.4628 29.3695 20.2246C29.3878 19.9864 29.3201 19.7495 29.1788 19.5568C29.0375 19.3641 28.8319 19.2285 28.5992 19.1743C28.3664 19.1202 28.122 19.1512 27.9102 19.2617L17.7449 24.5544L14.0205 23.1915L31.999 15.999L28.6719 32.0401Z" fill="white"/>
</svg>
